<svg xmlns="http://www.w3.org/2000/svg" width="131" height="15" fill="none" viewBox="0 0 131 15"><g clip-path="url(#a)"><path fill="#8CC63F" d="M10.695 4.776a1.77 1.77 0 1 0 0-3.54 1.77 1.77 0 0 0 0 3.54Z"/><path fill="#fff" d="M10.695 15.025a1.77 1.77 0 1 0 0-3.54 1.77 1.77 0 0 0 0 3.54ZM10.695 9.9a1.77 1.77 0 1 0 0-3.54 1.77 1.77 0 0 0 0 3.54ZM5.524 9.481a1.35 1.35 0 1 0 0-2.702 1.35 1.35 0 0 0 0 2.702ZM1.052 9.155a1.025 1.025 0 1 0 0-2.05 1.025 1.025 0 0 0 0 2.05ZM5.524 14.605a1.351 1.351 0 1 0 0-2.701 1.351 1.351 0 0 0 0 2.701ZM1.052 14.28a1.025 1.025 0 1 0 0-2.05 1.025 1.025 0 0 0 0 2.05ZM5.524 4.357a1.35 1.35 0 1 0 0-2.702 1.35 1.35 0 0 0 0 2.702ZM1.052 4.03a1.025 1.025 0 1 0 0-2.049 1.025 1.025 0 0 0 0 2.05ZM21.595 8.876c0-3.028 3.122-4.892 6.522-4.892 3.727 0 5.87 1.817 5.87 4.426 0 .326-.047.699-.14 1.025H23.365V8.037h8.898l-.559.466c0-2.003-1.35-3.028-3.494-3.028-2.236 0-4.053 1.211-4.053 3.4 0 2.283 1.957 3.401 4.705 3.401 1.305 0 2.563-.28 3.727-.838l.932 1.21c-1.538.746-3.261 1.119-4.985 1.119-3.913 0-6.94-1.817-6.94-4.891ZM38.086 8.876c0-3.121 3.307-4.892 7.174-4.892 1.677-.046 3.307.42 4.658 1.351L48.66 6.546a5.973 5.973 0 0 0-3.307-.978c-2.748 0-4.612 1.351-4.612 3.354s1.864 3.308 4.566 3.308c1.35 0 2.655-.373 3.773-1.118l1.118 1.21a9.897 9.897 0 0 1-5.124 1.445c-3.96 0-6.988-1.77-6.988-4.891ZM53.738 8.876c0-3.121 2.982-4.892 6.336-4.892s6.335 1.77 6.335 4.892c0 3.074-2.981 4.89-6.335 4.89s-6.336-1.77-6.336-4.89Zm10.062 0c0-2.003-1.444-3.354-3.68-3.354s-3.68 1.35-3.68 3.354c0 2.003 1.444 3.307 3.68 3.307s3.68-1.304 3.68-3.307ZM69.95 8.876c0-3.028 2.748-4.892 5.683-4.892 1.304 0 2.608.373 3.68 1.118h.046l-.14-1.63V-.022h2.61v13.556h-2.144l-.186-1.165h-.093c-1.165.886-2.562 1.351-4.006 1.398-3.261 0-5.45-1.77-5.45-4.891Zm9.27 2.05V6.5c-.886-.606-1.957-.978-3.028-.978-2.003 0-3.634 1.257-3.634 3.307 0 2.143 1.304 3.307 3.4 3.307 1.258.047 2.376-.419 3.261-1.21ZM86.58 11.065c0-2.096 2.609-3.121 9.037-3.494-.093-1.164-.932-2.096-3.214-2.096a10.8 10.8 0 0 0-4.333 1.071l-.978-1.257c1.817-.839 3.773-1.305 5.777-1.305 3.493 0 5.357 1.491 5.357 3.96v5.637h-2.143l-.186-1.212h-.094c-1.49.886-3.167 1.398-4.89 1.444-2.423-.046-4.333-1.07-4.333-2.748Zm9.037-.046v-2.19c-5.031.28-6.475.978-6.475 2.096 0 .932 1.165 1.305 2.516 1.305 1.397 0 2.794-.466 3.96-1.212ZM106.005 9.854v-4.1h-3.494V4.358l3.634-.093.326-2.935h2.143v2.935h6.009V5.8h-6.009v4.146c0 1.584.792 2.376 3.074 2.376.979 0 1.957-.14 2.889-.42l.512 1.398a14.676 14.676 0 0 1-4.053.56c-3.773-.094-5.031-1.678-5.031-4.007ZM118.956 11.065c0-2.096 2.608-3.121 9.037-3.494-.093-1.164-.932-2.096-3.214-2.096-1.491.047-2.982.42-4.333 1.071l-.978-1.257c1.817-.839 3.773-1.305 5.776-1.305 3.494 0 5.358 1.491 5.358 3.96v5.637h-2.143l-.187-1.212h-.093c-1.491.886-3.168 1.398-4.891 1.444-2.423-.046-4.332-1.07-4.332-2.748Zm9.037-.046v-2.19c-5.031.28-6.475.978-6.475 2.096 0 .932 1.164 1.305 2.515 1.305 1.398 0 2.795-.466 3.96-1.212Z"/></g><defs><clipPath id="a"><path fill="#fff" d="M0 0h130.621v15H0z"/></clipPath></defs></svg>